<svg xmlns="http://www.w3.org/2000/svg" width="1690" height="910" viewBox="-5 -5 1690 910"><defs><marker id="sequence" markerWidth="9" markerHeight="7" refX="8" refY="3.5" orient="auto"><path d="M0 0L8 3.5L0 7Z" fill="#111"/></marker><marker id="message" markerWidth="10" markerHeight="8" refX="9" refY="4" orient="auto"><path d="M0 0L9 4L0 8Z" fill="white" stroke="#111"/></marker></defs><rect x="-5" y="-5" width="1690" height="910" fill="white"/><rect x="20" y="270" width="1640" height="330" fill="white" stroke="#111" stroke-width="2"/><path d="M82 270V600" stroke="#111"/><g transform="translate(51 435) rotate(-90)"><text x="0" y="7.260000000000001" text-anchor="middle" font-family="Arial" font-size="22" font-weight="normal">ООО «Юкомс»</text></g><rect x="350" y="20" width="420" height="60" fill="white" stroke="#111" stroke-width="2"/><text x="560" y="57.92" text-anchor="middle" font-family="Arial" font-size="24" font-weight="normal">PC4Games</text><rect x="950" y="20" width="420" height="60" fill="white" stroke="#111" stroke-width="2"/><text x="1160" y="57.92" text-anchor="middle" font-family="Arial" font-size="24" font-weight="normal">ITPartner</text><rect x="20" y="820" width="1640" height="60" fill="white" stroke="#111" stroke-width="2"/><text x="840" y="857.92" text-anchor="middle" font-family="Arial" font-size="24" font-weight="normal">Ozon</text><path d="M146 415L230 415" fill="none" stroke="white" stroke-width="7"/><path d="M146 415L230 415" fill="none" stroke="#111" stroke-width="2"  marker-end="url(#sequence)"/><path d="M450 415L530 415" fill="none" stroke="white" stroke-width="7"/><path d="M450 415L530 415" fill="none" stroke="#111" stroke-width="2"  marker-end="url(#sequence)"/><path d="M760 415L850 415" fill="none" stroke="white" stroke-width="7"/><path d="M760 415L850 415" fill="none" stroke="#111" stroke-width="2"  marker-end="url(#sequence)"/><path d="M1095 415L1180 415" fill="none" stroke="white" stroke-width="7"/><path d="M1095 415L1180 415" fill="none" stroke="#111" stroke-width="2"  marker-end="url(#sequence)"/><path d="M1430 415L1550 415" fill="none" stroke="white" stroke-width="7"/><path d="M1430 415L1550 415" fill="none" stroke="#111" stroke-width="2"  marker-end="url(#sequence)"/><path d="M570 355L570 180L430 180L430 80" fill="none" stroke="white" stroke-width="7"/><path d="M570 355L570 180L430 180L430 80" fill="none" stroke="#111" stroke-width="2" stroke-dasharray="9 6" marker-end="url(#message)"/><circle cx="570" cy="355" r="4" fill="white" stroke="#111"/><path d="M700 80L700 130L620 130L620 355" fill="none" stroke="white" stroke-width="7"/><path d="M700 80L700 130L620 130L620 355" fill="none" stroke="#111" stroke-width="2" stroke-dasharray="9 6" marker-end="url(#message)"/><circle cx="700" cy="80" r="4" fill="white" stroke="#111"/><path d="M680 355L680 290L1030 290L1030 80" fill="none" stroke="white" stroke-width="7"/><path d="M680 355L680 290L1030 290L1030 80" fill="none" stroke="#111" stroke-width="2" stroke-dasharray="9 6" marker-end="url(#message)"/><circle cx="680" cy="355" r="4" fill="white" stroke="#111"/><path d="M1300 80L1300 250L725 250L725 355" fill="none" stroke="white" stroke-width="7"/><path d="M1300 80L1300 250L725 250L725 355" fill="none" stroke="#111" stroke-width="2" stroke-dasharray="9 6" marker-end="url(#message)"/><circle cx="1300" cy="80" r="4" fill="white" stroke="#111"/><path d="M1240 486L1240 820" fill="none" stroke="white" stroke-width="7"/><path d="M1240 486L1240 820" fill="none" stroke="#111" stroke-width="2" stroke-dasharray="9 6" marker-end="url(#message)"/><circle cx="1240" cy="486" r="4" fill="white" stroke="#111"/><path d="M1370 820L1370 486" fill="none" stroke="white" stroke-width="7"/><path d="M1370 820L1370 486" fill="none" stroke="#111" stroke-width="2" stroke-dasharray="9 6" marker-end="url(#message)"/><circle cx="1370" cy="820" r="4" fill="white" stroke="#111"/><circle cx="124" cy="415" r="22" fill="white" stroke="#111" stroke-width="2"/><rect x="230" y="355" width="220" height="120" rx="9" fill="white" stroke="#111" stroke-width="2"/><text x="340" y="418.61" text-anchor="middle" font-family="Arial" font-size="22" font-weight="normal">Создать запрос и</text><text x="340" y="443.91" text-anchor="middle" font-family="Arial" font-size="22" font-weight="normal">черновую версию</text><circle cx="245" cy="365" r="4" fill="white" stroke="#111"/><path d="M238 376q0-9 7-9q7 0 7 9Z" fill="white" stroke="#111"/><rect x="530" y="355" width="230" height="120" rx="9" fill="white" stroke="#111" stroke-width="2"/><text x="645" y="396.96" text-anchor="middle" font-family="Arial" font-size="22" font-weight="normal">Подготовить и</text><text x="645" y="422.26" text-anchor="middle" font-family="Arial" font-size="22" font-weight="normal">проверить версию</text><text x="645" y="447.55999999999995" text-anchor="middle" font-family="Arial" font-size="22" font-weight="normal">карточки</text><rect x="637" y="456" width="16" height="16" fill="white" stroke="#111"/><path d="M640 464H650M645 459V469" stroke="#111"/><rect x="850" y="355" width="245" height="120" rx="9" fill="white" stroke="#111" stroke-width="2"/><text x="972.5" y="405.96" text-anchor="middle" font-family="Arial" font-size="22" font-weight="normal">Утвердить</text><text x="972.5" y="431.26" text-anchor="middle" font-family="Arial" font-size="22" font-weight="normal">конкретную версию</text><text x="972.5" y="456.55999999999995" text-anchor="middle" font-family="Arial" font-size="22" font-weight="normal">карточки</text><circle cx="865" cy="365" r="4" fill="white" stroke="#111"/><path d="M858 376q0-9 7-9q7 0 7 9Z" fill="white" stroke="#111"/><rect x="1180" y="344" width="250" height="142" rx="9" fill="white" stroke="#111" stroke-width="2"/><text x="1305" y="384.31" text-anchor="middle" font-family="Arial" font-size="22" font-weight="normal">Опубликовать,</text><text x="1305" y="409.61" text-anchor="middle" font-family="Arial" font-size="22" font-weight="normal">сверить и</text><text x="1305" y="434.90999999999997" text-anchor="middle" font-family="Arial" font-size="22" font-weight="normal">зафиксировать</text><text x="1305" y="460.21" text-anchor="middle" font-family="Arial" font-size="22" font-weight="normal">результат</text><rect x="1297" y="467" width="16" height="16" fill="white" stroke="#111"/><path d="M1300 475H1310M1305 470V480" stroke="#111"/><circle cx="1572" cy="415" r="22" fill="white" stroke="#111" stroke-width="4"/><rect x="96.5" y="481.00000000000006" width="215" height="83.9" fill="white"/><text x="204" y="504.91" text-anchor="middle" font-family="Arial" font-size="22" font-weight="normal">Запрос на создание</text><text x="204" y="530.21" text-anchor="middle" font-family="Arial" font-size="22" font-weight="normal">или изменение</text><text x="204" y="555.51" text-anchor="middle" font-family="Arial" font-size="22" font-weight="normal">карточки</text><rect x="1479.5" y="451" width="165" height="83.9" fill="white"/><text x="1562" y="474.90999999999997" text-anchor="middle" font-family="Arial" font-size="22" font-weight="normal">Статус, аудит</text><text x="1562" y="500.21" text-anchor="middle" font-family="Arial" font-size="22" font-weight="normal">и уведомление</text><text x="1562" y="525.51" text-anchor="middle" font-family="Arial" font-size="22" font-weight="normal">сохранены</text><rect x="584" y="230.85" width="227" height="33.3" fill="white"/><text x="697.5" y="254.76" text-anchor="middle" font-family="Arial" font-size="22" font-weight="normal">Запрос предложений</text><rect x="634" y="185.85" width="243" height="33.3" fill="white"/><text x="755.5" y="209.76" text-anchor="middle" font-family="Arial" font-size="22" font-weight="normal">Цены, остатки и время</text><rect x="741.5" y="284.70000000000005" width="227" height="33.3" fill="white"/><text x="855" y="308.61" text-anchor="middle" font-family="Arial" font-size="22" font-weight="normal">Запрос предложений</text><rect x="891" y="204.7" width="243" height="33.3" fill="white"/><text x="1012.5" y="228.60999999999999" text-anchor="middle" font-family="Arial" font-size="22" font-weight="normal">Цены, остатки и время</text><rect x="1254" y="623.7" width="300" height="58.6" fill="white"/><text x="1404" y="647.61" text-anchor="middle" font-family="Arial" font-size="22" font-weight="normal">Версия карточки или запрос</text><text x="1404" y="672.91" text-anchor="middle" font-family="Arial" font-size="22" font-weight="normal">статуса</text><rect x="1384" y="693.7" width="254" height="58.6" fill="white"/><text x="1511" y="717.61" text-anchor="middle" font-family="Arial" font-size="22" font-weight="normal">ID операции и итоговый</text><text x="1511" y="742.91" text-anchor="middle" font-family="Arial" font-size="22" font-weight="normal">результат</text></svg>