<svg xmlns="http://www.w3.org/2000/svg" width="1767.5" height="720.5" viewBox="-39.5 -13.599999999999998 1767.5 720.5"><defs><marker id="sequence" markerWidth="9" markerHeight="7" refX="8" refY="3.5" orient="auto"><path d="M0 0L8 3.5L0 7Z" fill="#111"/></marker><marker id="message" markerWidth="10" markerHeight="8" refX="9" refY="4" orient="auto"><path d="M0 0L9 4L0 8Z" fill="white" stroke="#111"/></marker></defs><rect x="-39.5" y="-13.599999999999998" width="1767.5" height="720.5" fill="white"/><path d="M74 112L124 112L124 111.94761904761904L150 111.94761904761904" fill="none" stroke="white" stroke-width="7"/><path d="M74 112L124 112L124 111.94761904761904L150 111.94761904761904" fill="none" stroke="#111" stroke-width="2"  marker-end="url(#sequence)"/><path d="M390 111.94761904761904L450 111.94761904761904" fill="none" stroke="white" stroke-width="7"/><path d="M390 111.94761904761904L450 111.94761904761904" fill="none" stroke="#111" stroke-width="2"  marker-end="url(#sequence)"/><path d="M750 111.94761904761904L810 111.94761904761904" fill="none" stroke="white" stroke-width="7"/><path d="M750 111.94761904761904L810 111.94761904761904" fill="none" stroke="#111" stroke-width="2"  marker-end="url(#sequence)"/><path d="M1050 111.94761904761904L1084 111.94761904761904L1084 112L1110 112" fill="none" stroke="white" stroke-width="7"/><path d="M1050 111.94761904761904L1084 111.94761904761904L1084 112L1110 112" fill="none" stroke="#111" stroke-width="2"  marker-end="url(#sequence)"/><path d="M1164 113L1240 113" fill="none" stroke="white" stroke-width="7"/><path d="M1164 113L1240 113" fill="none" stroke="#111" stroke-width="2"  marker-end="url(#sequence)"/><path d="M1510 112L1585 112" fill="none" stroke="white" stroke-width="7"/><path d="M1510 112L1585 112" fill="none" stroke="#111" stroke-width="2"  marker-end="url(#sequence)"/><path d="M1137 140L1137 350" fill="none" stroke="white" stroke-width="7"/><path d="M1137 140L1137 350" fill="none" stroke="#111" stroke-width="2"  marker-end="url(#sequence)"/><path d="M1110 377L889 377" fill="none" stroke="white" stroke-width="7"/><path d="M1110 377L889 377" fill="none" stroke="#111" stroke-width="2"  marker-end="url(#sequence)"/><path d="M835 377L715 377" fill="none" stroke="white" stroke-width="7"/><path d="M835 377L715 377" fill="none" stroke="#111" stroke-width="2"  marker-end="url(#sequence)"/><path d="M585 325L585 170.5" fill="none" stroke="white" stroke-width="7"/><path d="M585 325L585 170.5" fill="none" stroke="#111" stroke-width="2"  marker-end="url(#sequence)"/><path d="M1164 377L1365 377L1365 504.5" fill="none" stroke="white" stroke-width="7"/><path d="M1164 377L1365 377L1365 504.5" fill="none" stroke="#111" stroke-width="2"  marker-end="url(#sequence)"/><path d="M1505 561.947619047619L1564 561.947619047619L1564 562L1590 562" fill="none" stroke="white" stroke-width="7"/><path d="M1505 561.947619047619L1564 561.947619047619L1564 562L1590 562" fill="none" stroke="#111" stroke-width="2"  marker-end="url(#sequence)"/><circle cx="52" cy="112" r="22" fill="white" stroke="#111" stroke-width="2"/><rect x="150" y="54.5" width="240" height="116" rx="9" fill="white" stroke="#111" stroke-width="2"/><text x="270" y="103.46000000000001" text-anchor="middle" font-family="Arial" font-size="22" font-weight="normal">Поставить версию в</text><text x="270" y="128.76" text-anchor="middle" font-family="Arial" font-size="22" font-weight="normal">очередь и сохранить</text><text x="270" y="154.06" text-anchor="middle" font-family="Arial" font-size="22" font-weight="normal">ключ операции</text><polygon points="174,69.5 173.82706752362907,71.25581289814515 171.28238082107674,72.10224734008261 170.65399336365732,73.2778775845333 171.36396103067892,75.86396103067892 170.00013209717642,76.9832265107229 167.6022473400826,75.78238082107674 166.32661418970966,76.16933990674197 165,78.5 163.24418710185483,78.32706752362907 162.3977526599174,75.78238082107674 161.2221224154667,75.1539933636573 158.63603896932108,75.86396103067892 157.51677348927709,74.50013209717642 158.71761917892326,72.10224734008261 158.33066009325805,70.82661418970967 156,69.5 156.17293247637093,67.74418710185485 158.71761917892326,66.89775265991739 159.34600663634268,65.72212241546671 158.63603896932108,63.13603896932107 159.99986790282358,62.01677348927709 162.3977526599174,63.21761917892325 163.6733858102903,62.83066009325803 165,60.5 166.75581289814517,60.672932476370924 167.6022473400826,63.21761917892325 168.7778775845333,63.84600663634269 171.36396103067892,63.13603896932107 172.48322651072291,64.49986790282358 171.28238082107674,66.89775265991739 171.66933990674195,68.17338581029033" fill="white" stroke="#111"/><circle cx="165" cy="69.5" r="3" fill="white" stroke="#111"/><rect x="450" y="54.5" width="300" height="116" rx="9" fill="white" stroke="#111" stroke-width="2"/><text x="600" y="103.46000000000001" text-anchor="middle" font-family="Arial" font-size="22" font-weight="normal">Сверить статус и</text><text x="600" y="128.76" text-anchor="middle" font-family="Arial" font-size="22" font-weight="normal">отправить только</text><text x="600" y="154.06" text-anchor="middle" font-family="Arial" font-size="22" font-weight="normal">отсутствующую операцию</text><polygon points="474,69.5 473.82706752362907,71.25581289814515 471.28238082107674,72.10224734008261 470.6539933636573,73.2778775845333 471.3639610306789,75.86396103067892 470.00013209717645,76.9832265107229 467.6022473400826,75.78238082107674 466.3266141897097,76.16933990674197 465,78.5 463.24418710185483,78.32706752362907 462.3977526599174,75.78238082107674 461.2221224154667,75.1539933636573 458.6360389693211,75.86396103067892 457.5167734892771,74.50013209717642 458.71761917892326,72.10224734008261 458.330660093258,70.82661418970967 456,69.5 456.17293247637093,67.74418710185485 458.71761917892326,66.89775265991739 459.3460066363427,65.72212241546671 458.6360389693211,63.13603896932107 459.99986790282355,62.01677348927709 462.3977526599174,63.21761917892325 463.6733858102903,62.83066009325803 465,60.5 466.75581289814517,60.672932476370924 467.6022473400826,63.21761917892325 468.7778775845333,63.84600663634269 471.3639610306789,63.13603896932107 472.4832265107229,64.49986790282358 471.28238082107674,66.89775265991739 471.669339906742,68.17338581029033" fill="white" stroke="#111"/><circle cx="465" cy="69.5" r="3" fill="white" stroke="#111"/><rect x="810" y="54.5" width="240" height="116" rx="9" fill="white" stroke="#111" stroke-width="2"/><text x="930" y="103.46000000000001" text-anchor="middle" font-family="Arial" font-size="22" font-weight="normal">Ожидать итоговый</text><text x="930" y="128.76" text-anchor="middle" font-family="Arial" font-size="22" font-weight="normal">статус; сверить</text><text x="930" y="154.06" text-anchor="middle" font-family="Arial" font-size="22" font-weight="normal">потерянный ответ</text><polygon points="834,69.5 833.8270675236291,71.25581289814515 831.2823808210768,72.10224734008261 830.6539933636573,73.2778775845333 831.363961030679,75.86396103067892 830.0001320971764,76.9832265107229 827.6022473400826,75.78238082107674 826.3266141897096,76.16933990674197 825,78.5 823.2441871018549,78.32706752362907 822.3977526599174,75.78238082107674 821.2221224154667,75.1539933636573 818.636038969321,75.86396103067892 817.516773489277,74.50013209717642 818.7176191789232,72.10224734008261 818.3306600932581,70.82661418970967 816,69.5 816.1729324763709,67.74418710185485 818.7176191789232,66.89775265991739 819.3460066363427,65.72212241546671 818.636038969321,63.13603896932107 819.9998679028236,62.01677348927709 822.3977526599174,63.21761917892325 823.6733858102904,62.83066009325803 825,60.5 826.7558128981451,60.672932476370924 827.6022473400826,63.21761917892325 828.7778775845333,63.84600663634269 831.363961030679,63.13603896932107 832.483226510723,64.49986790282358 831.2823808210768,66.89775265991739 831.6693399067419,68.17338581029033" fill="white" stroke="#111"/><circle cx="825" cy="69.5" r="3" fill="white" stroke="#111"/><path d="M1137 86L1164 113L1137 140L1110 113Z" fill="white" stroke="#111" stroke-width="2"/><path d="M1127 103L1147 123M1147 103L1127 123" stroke="#111" stroke-width="3"/><rect x="1240" y="60" width="270" height="105" rx="9" fill="white" stroke="#111" stroke-width="2"/><text x="1375" y="116.11" text-anchor="middle" font-family="Arial" font-size="22" font-weight="normal">Сохранить внешний ID,</text><text x="1375" y="141.40999999999997" text-anchor="middle" font-family="Arial" font-size="22" font-weight="normal">статус и аудит</text><polygon points="1264,75 1263.827067523629,76.75581289814515 1261.2823808210767,77.60224734008261 1260.6539933636573,78.7778775845333 1261.3639610306789,81.36396103067892 1260.0001320971764,82.4832265107229 1257.6022473400826,81.28238082107674 1256.3266141897097,81.66933990674197 1255,84 1253.2441871018548,83.82706752362907 1252.3977526599174,81.28238082107674 1251.2221224154666,80.6539933636573 1248.6360389693211,81.36396103067892 1247.516773489277,80.00013209717642 1248.7176191789233,77.60224734008261 1248.330660093258,76.32661418970967 1246,75 1246.172932476371,73.24418710185485 1248.7176191789233,72.39775265991739 1249.3460066363427,71.22212241546671 1248.6360389693211,68.63603896932108 1249.9998679028236,67.5167734892771 1252.3977526599174,68.71761917892326 1253.6733858102903,68.33066009325803 1255,66 1256.7558128981452,66.17293247637093 1257.6022473400826,68.71761917892326 1258.7778775845334,69.3460066363427 1261.3639610306789,68.63603896932108 1262.483226510723,69.99986790282358 1261.2823808210767,72.39775265991739 1261.669339906742,73.67338581029033" fill="white" stroke="#111"/><circle cx="1255" cy="75" r="3" fill="white" stroke="#111"/><circle cx="1607" cy="112" r="22" fill="white" stroke="#111" stroke-width="4"/><path d="M1137 350L1164 377L1137 404L1110 377Z" fill="white" stroke="#111" stroke-width="2"/><path d="M1127 367L1147 387M1147 367L1127 387" stroke="#111" stroke-width="3"/><circle cx="862" cy="377" r="27" fill="white" stroke="#111" stroke-width="2"/><circle cx="862" cy="377" r="23" fill="none" stroke="#111" stroke-width="1.5"/><circle cx="862" cy="377" r="17" fill="none" stroke="#111"/><path d="M862 365V377L872 382" fill="none" stroke="#111"/><rect x="450" y="325" width="265" height="105" rx="9" fill="white" stroke="#111" stroke-width="2"/><text x="582.5" y="381.11" text-anchor="middle" font-family="Arial" font-size="22" font-weight="normal">Увеличить счётчик</text><text x="582.5" y="406.41" text-anchor="middle" font-family="Arial" font-size="22" font-weight="normal">повторов</text><polygon points="474,340 473.82706752362907,341.75581289814517 471.28238082107674,342.6022473400826 470.6539933636573,343.7778775845333 471.3639610306789,346.3639610306789 470.00013209717645,347.4832265107229 467.6022473400826,346.28238082107674 466.3266141897097,346.669339906742 465,349 463.24418710185483,348.82706752362907 462.3977526599174,346.28238082107674 461.2221224154667,345.6539933636573 458.6360389693211,346.3639610306789 457.5167734892771,345.00013209717645 458.71761917892326,342.6022473400826 458.330660093258,341.3266141897097 456,340 456.17293247637093,338.24418710185483 458.71761917892326,337.3977526599174 459.3460066363427,336.2221224154667 458.6360389693211,333.6360389693211 459.99986790282355,332.5167734892771 462.3977526599174,333.71761917892326 463.6733858102903,333.330660093258 465,331 466.75581289814517,331.17293247637093 467.6022473400826,333.71761917892326 468.7778775845333,334.3460066363427 471.3639610306789,333.6360389693211 472.4832265107229,334.99986790282355 471.28238082107674,337.3977526599174 471.669339906742,338.6733858102903" fill="white" stroke="#111"/><circle cx="465" cy="340" r="3" fill="white" stroke="#111"/><rect x="1235" y="504.5" width="270" height="116" rx="9" fill="white" stroke="#111" stroke-width="2"/><text x="1370" y="553.46" text-anchor="middle" font-family="Arial" font-size="22" font-weight="normal">Сохранить ошибку или</text><text x="1370" y="578.76" text-anchor="middle" font-family="Arial" font-size="22" font-weight="normal">UNCERTAIN, аудит и</text><text x="1370" y="604.0600000000001" text-anchor="middle" font-family="Arial" font-size="22" font-weight="normal">уведомление</text><polygon points="1259,519.5 1258.827067523629,521.2558128981451 1256.2823808210767,522.1022473400826 1255.6539933636573,523.2778775845333 1256.3639610306789,525.863961030679 1255.0001320971764,526.983226510723 1252.6022473400826,525.7823808210768 1251.3266141897097,526.1693399067419 1250,528.5 1248.2441871018548,528.3270675236291 1247.3977526599174,525.7823808210768 1246.2221224154666,525.1539933636573 1243.6360389693211,525.863961030679 1242.516773489277,524.5001320971764 1243.7176191789233,522.1022473400826 1243.330660093258,520.8266141897096 1241,519.5 1241.172932476371,517.7441871018549 1243.7176191789233,516.8977526599174 1244.3460066363427,515.7221224154667 1243.6360389693211,513.136038969321 1244.9998679028236,512.016773489277 1247.3977526599174,513.2176191789232 1248.6733858102903,512.8306600932581 1250,510.5 1251.7558128981452,510.67293247637093 1252.6022473400826,513.2176191789232 1253.7778775845334,513.8460066363427 1256.3639610306789,513.136038969321 1257.483226510723,514.4998679028236 1256.2823808210767,516.8977526599174 1256.669339906742,518.1733858102904" fill="white" stroke="#111"/><circle cx="1250" cy="519.5" r="3" fill="white" stroke="#111"/><circle cx="1612" cy="562" r="22" fill="white" stroke="#111" stroke-width="4"/><rect x="-14.5" y="148" width="133" height="58.6" fill="white"/><text x="52" y="171.91" text-anchor="middle" font-family="Arial" font-size="22" font-weight="normal">Публикация</text><text x="52" y="197.20999999999998" text-anchor="middle" font-family="Arial" font-size="22" font-weight="normal">разрешена</text><rect x="1070.5" y="11.400000000000002" width="133" height="58.6" fill="white"/><text x="1137" y="35.31" text-anchor="middle" font-family="Arial" font-size="22" font-weight="normal">Публикация</text><text x="1137" y="60.61" text-anchor="middle" font-family="Arial" font-size="22" font-weight="normal">успешна?</text><rect x="1528" y="148" width="158" height="58.6" fill="white"/><text x="1607" y="171.91" text-anchor="middle" font-family="Arial" font-size="22" font-weight="normal">Опубликовано</text><text x="1607" y="197.20999999999998" text-anchor="middle" font-family="Arial" font-size="22" font-weight="normal">и уведомлено</text><rect x="1030.5" y="275.4" width="213" height="58.6" fill="white"/><text x="1137" y="299.31" text-anchor="middle" font-family="Arial" font-size="22" font-weight="normal">Временный сбой</text><text x="1137" y="324.61" text-anchor="middle" font-family="Arial" font-size="22" font-weight="normal">и повтор допустим?</text><rect x="763" y="418" width="198" height="33.3" fill="white"/><text x="862" y="441.90999999999997" text-anchor="middle" font-family="Arial" font-size="22" font-weight="normal">Задержка повтора</text><rect x="1521" y="598" width="182" height="83.9" fill="white"/><text x="1612" y="621.9100000000001" text-anchor="middle" font-family="Arial" font-size="22" font-weight="normal">Публикация</text><text x="1612" y="647.21" text-anchor="middle" font-family="Arial" font-size="22" font-weight="normal">приостановлена;</text><text x="1612" y="672.5100000000001" text-anchor="middle" font-family="Arial" font-size="22" font-weight="normal">нужна проверка</text><rect x="1183" y="77.69999999999999" width="38" height="33.3" fill="white"/><text x="1202" y="101.61" text-anchor="middle" font-family="Arial" font-size="22" font-weight="normal">Да</text><rect x="1151" y="183.05" width="142" height="83.9" fill="white"/><text x="1222" y="206.95999999999998" text-anchor="middle" font-family="Arial" font-size="22" font-weight="normal">Ошибка или</text><text x="1222" y="232.26" text-anchor="middle" font-family="Arial" font-size="22" font-weight="normal">неизвестный</text><text x="1222" y="257.56" text-anchor="middle" font-family="Arial" font-size="22" font-weight="normal">результат</text><rect x="980.5" y="331.70000000000005" width="38" height="33.3" fill="white"/><text x="999.5" y="355.61" text-anchor="middle" font-family="Arial" font-size="22" font-weight="normal">Да</text><rect x="599" y="218.45" width="163" height="58.6" fill="white"/><text x="680.5" y="242.35999999999999" text-anchor="middle" font-family="Arial" font-size="22" font-weight="normal">Сверить перед</text><text x="680.5" y="267.65999999999997" text-anchor="middle" font-family="Arial" font-size="22" font-weight="normal">повтором</text><rect x="1240.5" y="341.70000000000005" width="48" height="33.3" fill="white"/><text x="1264.5" y="365.61" text-anchor="middle" font-family="Arial" font-size="22" font-weight="normal">Нет</text></svg>