<svg xmlns="http://www.w3.org/2000/svg" width="2160" height="1248"><rect width="2160" height="1248" fill="white"/><path d="M980 138L1004 138L1136 138L1160 138" fill="none" stroke="white" stroke-width="7"/><path d="M980 138L1004 138L1136 138L1160 138" fill="none" stroke="#111" stroke-width="2"/><path d="M530 415L530 448L530 597L530 630" fill="none" stroke="white" stroke-width="7"/><path d="M530 415L530 448L530 597L530 630" fill="none" stroke="#111" stroke-width="2"/><path d="M1160 198L1118 198L1118 678L1022 678L980 678" fill="none" stroke="white" stroke-width="7"/><path d="M1160 198L1118 198L1118 678L1022 678L980 678" fill="none" stroke="#111" stroke-width="2"/><path d="M980 738L1031 738L1109 738L1109 678L1160 678" fill="none" stroke="white" stroke-width="7"/><path d="M980 738L1031 738L1109 738L1109 678L1160 678" fill="none" stroke="#111" stroke-width="2"/><rect x="80" y="90" width="900" height="325" fill="white" stroke="#111" stroke-width="2"/><text x="96" y="129" font-family="Arial" font-size="36" font-weight="bold">Модельный ряд</text><text x="96" y="171" font-family="Arial" font-size="36" font-weight="bold">model_line</text><path d="M80 190h900" stroke="#aaa"/><text x="96" y="224" font-family="Arial" font-size="32" font-weight="normal">PK · Идентификатор</text><path d="M80 235h900" stroke="#aaa"/><text x="96" y="269" font-family="Arial" font-size="32" font-weight="normal">UQ · code</text><path d="M80 280h900" stroke="#aaa"/><text x="96" y="314" font-family="Arial" font-size="32" font-weight="normal">name</text><path d="M80 325h900" stroke="#aaa"/><text x="96" y="359" font-family="Arial" font-size="32" font-weight="normal">FK · Ссылка на app_user</text><path d="M80 370h900" stroke="#aaa"/><text x="96" y="404" font-family="Arial" font-size="32" font-weight="normal">Момент времени</text><rect x="1160" y="90" width="900" height="370" fill="white" stroke="#111" stroke-width="2"/><text x="1176" y="129" font-family="Arial" font-size="36" font-weight="bold">Запрос на изменение</text><text x="1176" y="171" font-family="Arial" font-size="36" font-weight="bold">change_request</text><path d="M1160 190h900" stroke="#aaa"/><text x="1176" y="224" font-family="Arial" font-size="32" font-weight="normal">PK · Идентификатор</text><path d="M1160 235h900" stroke="#aaa"/><text x="1176" y="269" font-family="Arial" font-size="32" font-weight="normal">FK · Ссылка на model_line</text><path d="M1160 280h900" stroke="#aaa"/><text x="1176" y="314" font-family="Arial" font-size="32" font-weight="normal">FK · Ссылка на app_user</text><path d="M1160 325h900" stroke="#aaa"/><text x="1176" y="359" font-family="Arial" font-size="32" font-weight="normal">kind</text><path d="M1160 370h900" stroke="#aaa"/><text x="1176" y="404" font-family="Arial" font-size="32" font-weight="normal">reason</text><path d="M1160 415h900" stroke="#aaa"/><text x="1176" y="449" font-family="Arial" font-size="32" font-weight="normal">Момент времени</text><rect x="80" y="630" width="900" height="460" fill="white" stroke="#111" stroke-width="2"/><text x="96" y="669" font-family="Arial" font-size="36" font-weight="bold">Версия модельного ряда</text><text x="96" y="711" font-family="Arial" font-size="36" font-weight="bold">model_line_version</text><path d="M80 730h900" stroke="#aaa"/><text x="96" y="764" font-family="Arial" font-size="32" font-weight="normal">PK · Идентификатор</text><path d="M80 775h900" stroke="#aaa"/><text x="96" y="809" font-family="Arial" font-size="32" font-weight="normal">UQ FK · Ссылка на model_line</text><path d="M80 820h900" stroke="#aaa"/><text x="96" y="854" font-family="Arial" font-size="32" font-weight="normal">UQ · version_no</text><path d="M80 865h900" stroke="#aaa"/><text x="96" y="899" font-family="Arial" font-size="32" font-weight="normal">FK · Ссылка на change_request</text><path d="M80 910h900" stroke="#aaa"/><text x="96" y="944" font-family="Arial" font-size="32" font-weight="normal">FK · Ссылка на component</text><path d="M80 955h900" stroke="#aaa"/><text x="96" y="989" font-family="Arial" font-size="32" font-weight="normal">state</text><path d="M80 1000h900" stroke="#aaa"/><text x="96" y="1034" font-family="Arial" font-size="32" font-weight="normal">FK · Ссылка на app_user</text><path d="M80 1045h900" stroke="#aaa"/><text x="96" y="1079" font-family="Arial" font-size="32" font-weight="normal">Момент времени</text><rect x="1160" y="630" width="900" height="415" fill="white" stroke="#111" stroke-width="2"/><text x="1176" y="669" font-family="Arial" font-size="36" font-weight="bold">Слот модельного ряда</text><text x="1176" y="711" font-family="Arial" font-size="36" font-weight="bold">model_line_slot</text><path d="M1160 730h900" stroke="#aaa"/><text x="1176" y="764" font-family="Arial" font-size="32" font-weight="normal">PK · Идентификатор</text><path d="M1160 775h900" stroke="#aaa"/><text x="1176" y="809" font-family="Arial" font-size="32" font-weight="normal">UQ FK · Ссылка на model_line_version</text><path d="M1160 820h900" stroke="#aaa"/><text x="1176" y="854" font-family="Arial" font-size="32" font-weight="normal">UQ · slot_code</text><path d="M1160 865h900" stroke="#aaa"/><text x="1176" y="899" font-family="Arial" font-size="32" font-weight="normal">quantity</text><path d="M1160 910h900" stroke="#aaa"/><text x="1176" y="944" font-family="Arial" font-size="32" font-weight="normal">FK · Ссылка на component</text><path d="M1160 955h900" stroke="#aaa"/><text x="1176" y="989" font-family="Arial" font-size="32" font-weight="normal">FK · Ссылка на component_group</text><path d="M1160 1000h900" stroke="#aaa"/><text x="1176" y="1034" font-family="Arial" font-size="32" font-weight="normal">FK · Ссылка на supplier_product</text><rect x="987" y="100" width="78" height="33" fill="white"/><text x="990" y="126" font-family="Arial" font-size="28" font-weight="normal">1..1</text><rect x="1075" y="100" width="78" height="33" fill="white"/><text x="1078" y="126" font-family="Arial" font-size="28" font-weight="normal">0..N</text><rect x="537" y="427" width="78" height="33" fill="white"/><text x="540" y="453" font-family="Arial" font-size="28" font-weight="normal">1..1</text><rect x="537" y="592" width="78" height="33" fill="white"/><text x="540" y="618" font-family="Arial" font-size="28" font-weight="normal">0..N</text><rect x="1075" y="160" width="78" height="33" fill="white"/><text x="1078" y="186" font-family="Arial" font-size="28" font-weight="normal">1..1</text><rect x="987" y="640" width="78" height="33" fill="white"/><text x="990" y="666" font-family="Arial" font-size="28" font-weight="normal">0..N</text><rect x="987" y="700" width="78" height="33" fill="white"/><text x="990" y="726" font-family="Arial" font-size="28" font-weight="normal">1..1</text><rect x="1075" y="640" width="78" height="33" fill="white"/><text x="1078" y="666" font-family="Arial" font-size="28" font-weight="normal">0..N</text><text x="80" y="1150" font-family="Arial" font-size="28" font-weight="normal">model_line_slot (1..1) — slot_selection (0..1); продолжение 2</text><text x="80" y="1184" font-family="Arial" font-size="28" font-weight="normal">model_line_version (1..1) — validation_result (0..N); продолжение 2</text></svg>