<svg xmlns="http://www.w3.org/2000/svg" width="2160" height="1275"><rect width="2160" height="1275" fill="white"/><path d="M1160 138L1136 138L1004 138L980 138" fill="none" stroke="white" stroke-width="7"/><path d="M1160 138L1136 138L1004 138L980 138" fill="none" stroke="#111" stroke-width="2"/><path d="M980 726L1013 726L1013 198L1127 198L1160 198" fill="none" stroke="white" stroke-width="7"/><path d="M980 726L1013 726L1013 198L1127 198L1160 198" fill="none" stroke="#111" stroke-width="2"/><rect x="80" y="90" width="900" height="418" fill="white" stroke="#111" stroke-width="2"/><text x="96" y="129" font-family="Arial" font-size="36" font-weight="bold">replacement_rule</text><path d="M80 148h900" stroke="#aaa"/><text x="96" y="182" font-family="Arial" font-size="32" font-weight="normal">PK · id · bigint NN</text><path d="M80 193h900" stroke="#aaa"/><text x="96" y="227" font-family="Arial" font-size="32" font-weight="normal">UQ · code · varchar(32) NN</text><path d="M80 238h900" stroke="#aaa"/><text x="96" y="272" font-family="Arial" font-size="32" font-weight="normal">FK · from_component_id · bigint NN</text><path d="M80 283h900" stroke="#aaa"/><text x="96" y="317" font-family="Arial" font-size="32" font-weight="normal">FK · to_component_id · bigint NN</text><path d="M80 328h900" stroke="#aaa"/><text x="96" y="362" font-family="Arial" font-size="32" font-weight="normal">FK · from_product_id · bigint</text><path d="M80 373h900" stroke="#aaa"/><text x="96" y="407" font-family="Arial" font-size="32" font-weight="normal">FK · to_product_id · bigint</text><path d="M80 418h900" stroke="#aaa"/><text x="96" y="452" font-family="Arial" font-size="32" font-weight="normal">scope · jsonb NN</text><path d="M80 463h900" stroke="#aaa"/><text x="96" y="497" font-family="Arial" font-size="32" font-weight="normal">enabled · boolean NN</text><rect x="1160" y="90" width="900" height="328" fill="white" stroke="#111" stroke-width="2"/><text x="1176" y="129" font-family="Arial" font-size="36" font-weight="bold">replacement_batch</text><path d="M1160 148h900" stroke="#aaa"/><text x="1176" y="182" font-family="Arial" font-size="32" font-weight="normal">PK · id · bigint NN</text><path d="M1160 193h900" stroke="#aaa"/><text x="1176" y="227" font-family="Arial" font-size="32" font-weight="normal">FK · rule_id · bigint NN</text><path d="M1160 238h900" stroke="#aaa"/><text x="1176" y="272" font-family="Arial" font-size="32" font-weight="normal">FK · created_by · bigint NN</text><path d="M1160 283h900" stroke="#aaa"/><text x="1176" y="317" font-family="Arial" font-size="32" font-weight="normal">state · varchar(12) NN</text><path d="M1160 328h900" stroke="#aaa"/><text x="1176" y="362" font-family="Arial" font-size="32" font-weight="normal">rule_snapshot · jsonb NN</text><path d="M1160 373h900" stroke="#aaa"/><text x="1176" y="407" font-family="Arial" font-size="32" font-weight="normal">created_at · timestamptz NN</text><rect x="80" y="678" width="900" height="328" fill="white" stroke="#111" stroke-width="2"/><text x="96" y="717" font-family="Arial" font-size="36" font-weight="bold">replacement_item</text><path d="M80 736h900" stroke="#aaa"/><text x="96" y="770" font-family="Arial" font-size="32" font-weight="normal">PK FK · batch_id · bigint NN</text><path d="M80 781h900" stroke="#aaa"/><text x="96" y="815" font-family="Arial" font-size="32" font-weight="normal">PK FK · model_line_id · bigint NN</text><path d="M80 826h900" stroke="#aaa"/><text x="96" y="860" font-family="Arial" font-size="32" font-weight="normal">FK · old_version_id · bigint NN</text><path d="M80 871h900" stroke="#aaa"/><text x="96" y="905" font-family="Arial" font-size="32" font-weight="normal">FK · new_version_id · bigint</text><path d="M80 916h900" stroke="#aaa"/><text x="96" y="950" font-family="Arial" font-size="32" font-weight="normal">result · varchar(12) NN</text><path d="M80 961h900" stroke="#aaa"/><text x="96" y="995" font-family="Arial" font-size="32" font-weight="normal">details · jsonb NN</text><rect x="1160" y="678" width="900" height="463" fill="white" stroke="#111" stroke-width="2"/><text x="1176" y="717" font-family="Arial" font-size="36" font-weight="bold">calculation_rule</text><path d="M1160 736h900" stroke="#aaa"/><text x="1176" y="770" font-family="Arial" font-size="32" font-weight="normal">PK · id · bigint NN</text><path d="M1160 781h900" stroke="#aaa"/><text x="1176" y="815" font-family="Arial" font-size="32" font-weight="normal">UQ · code · varchar(24) NN</text><path d="M1160 826h900" stroke="#aaa"/><text x="1176" y="860" font-family="Arial" font-size="32" font-weight="normal">UQ · revision · integer NN</text><path d="M1160 871h900" stroke="#aaa"/><text x="1176" y="905" font-family="Arial" font-size="32" font-weight="normal">markup_rate · numeric(6,4) NN</text><path d="M1160 916h900" stroke="#aaa"/><text x="1176" y="950" font-family="Arial" font-size="32" font-weight="normal">assembly_cost · numeric(12,2) NN</text><path d="M1160 961h900" stroke="#aaa"/><text x="1176" y="995" font-family="Arial" font-size="32" font-weight="normal">packaging_cost · numeric(12,2) NN</text><path d="M1160 1006h900" stroke="#aaa"/><text x="1176" y="1040" font-family="Arial" font-size="32" font-weight="normal">packaging_mass · numeric(8,3) NN</text><path d="M1160 1051h900" stroke="#aaa"/><text x="1176" y="1085" font-family="Arial" font-size="32" font-weight="normal">round_step · numeric(8,2) NN</text><path d="M1160 1096h900" stroke="#aaa"/><text x="1176" y="1130" font-family="Arial" font-size="32" font-weight="normal">offer_ttl_hours · integer NN</text><rect x="1075" y="100" width="78" height="33" fill="white"/><text x="1078" y="126" font-family="Arial" font-size="28" font-weight="normal">0..N</text><rect x="987" y="100" width="78" height="33" fill="white"/><text x="990" y="126" font-family="Arial" font-size="28" font-weight="normal">1..1</text><rect x="987" y="688" width="78" height="33" fill="white"/><text x="990" y="714" font-family="Arial" font-size="28" font-weight="normal">0..N</text><rect x="1075" y="160" width="78" height="33" fill="white"/><text x="1078" y="186" font-family="Arial" font-size="28" font-weight="normal">1..1</text><text x="80" y="1211" font-family="Arial" font-size="28" font-weight="normal">NN — NOT NULL; PK — первичный ключ; FK — внешний ключ; UQ — уникальность.</text></svg>