<svg xmlns="http://www.w3.org/2000/svg" width="1855" height="837" viewBox="0 0 1855 837"><defs><marker id="call" markerWidth="9" markerHeight="8" refX="8" refY="4" orient="auto"><path d="M0 0L8 4L0 8Z" fill="#111"/></marker><marker id="open" markerWidth="9" markerHeight="8" refX="8" refY="4" orient="auto"><path d="M0 0L8 4L0 8" fill="none" stroke="#111"/></marker></defs><rect width="100%" height="100%" fill="white"/><rect x="80" y="40" width="245" height="82" fill="white" stroke="#111" stroke-width="1.7"/><text x="202.5" y="91.5" font-family="Arial" font-size="26" text-anchor="middle"><tspan x="202.5" dy="0">Сотрудник склада</tspan></text><path d="M202.5 122V822" fill="none" stroke="#888" stroke-width="1.2" stroke-dasharray="8 6"/><rect x="370" y="40" width="245" height="82" fill="white" stroke="#111" stroke-width="1.7"/><text x="492.5" y="91.5" font-family="Arial" font-size="26" text-anchor="middle"><tspan x="492.5" dy="0">Web / API</tspan></text><path d="M492.5 122V822" fill="none" stroke="#888" stroke-width="1.2" stroke-dasharray="8 6"/><rect x="660" y="40" width="245" height="82" fill="white" stroke="#111" stroke-width="1.7"/><text x="782.5" y="76" font-family="Arial" font-size="26" text-anchor="middle"><tspan x="782.5" dy="0">Сервис</tspan><tspan x="782.5" dy="31">предложений</tspan></text><path d="M782.5 122V822" fill="none" stroke="#888" stroke-width="1.2" stroke-dasharray="8 6"/><rect x="950" y="40" width="245" height="82" fill="white" stroke="#111" stroke-width="1.7"/><text x="1072.5" y="91.5" font-family="Arial" font-size="26" text-anchor="middle"><tspan x="1072.5" dy="0">Адаптер</tspan></text><path d="M1072.5 122V822" fill="none" stroke="#888" stroke-width="1.2" stroke-dasharray="8 6"/><rect x="1240" y="40" width="245" height="82" fill="white" stroke="#111" stroke-width="1.7"/><text x="1362.5" y="91.5" font-family="Arial" font-size="26" text-anchor="middle"><tspan x="1362.5" dy="0">Поставщик</tspan></text><path d="M1362.5 122V822" fill="none" stroke="#888" stroke-width="1.2" stroke-dasharray="8 6"/><rect x="1530" y="40" width="245" height="82" fill="white" stroke="#111" stroke-width="1.7"/><text x="1652.5" y="91.5" font-family="Arial" font-size="26" text-anchor="middle"><tspan x="1652.5" dy="0">PostgreSQL</tspan></text><path d="M1652.5 122V822" fill="none" stroke="#888" stroke-width="1.2" stroke-dasharray="8 6"/><rect x="24" y="531" width="1807" height="271" fill="none" stroke="#111" stroke-width="1.4"/><rect x="213" y="161" width="269" height="124" fill="white"/><text x="347.5" y="187" font-family="Arial" font-size="26" text-anchor="middle"><tspan x="347.5" dy="0">1. Обновить</tspan><tspan x="347.5" dy="31">выбранного</tspan><tspan x="347.5" dy="31">поставщика; HTTPS /</tspan><tspan x="347.5" dy="31">JSON</tspan></text><path d="M202.5 299H492.5" fill="none" stroke="#111" stroke-width="1.8"  marker-end="url(#call)"/><rect x="520" y="315" width="235" height="93" fill="white"/><text x="637.5" y="341" font-family="Arial" font-size="26" text-anchor="middle"><tspan x="637.5" dy="0">2. Проверить роль</tspan><tspan x="637.5" dy="31">STOCK; начать</tspan><tspan x="637.5" dy="31">импорт</tspan></text><path d="M492.5 422H782.5" fill="none" stroke="#111" stroke-width="1.8"  marker-end="url(#open)"/><rect x="221.5" y="438" width="252" height="62" fill="white"/><text x="347.5" y="464" font-family="Arial" font-size="26" text-anchor="middle"><tspan x="347.5" dy="0">3. Импорт принят в</tspan><tspan x="347.5" dy="31">фоновую обработку</tspan></text><path d="M492.5 514H202.5" fill="none" stroke="#111" stroke-width="1.8" stroke-dasharray="8 5" marker-end="url(#open)"/><rect x="40" y="530" width="1775" height="37" fill="white"/><text x="50" y="556" font-family="Arial" font-size="24" text-anchor="start"><tspan x="50" dy="0">loop · Первая попытка и до 3 отложенных повторов [не завершено и попытка ≤ 4; дождаться next_attempt_at / срока сервера]</tspan></text><rect x="797" y="571" width="261" height="62" fill="white"/><text x="927.5" y="597" font-family="Arial" font-size="26" text-anchor="middle"><tspan x="927.5" dy="0">4. Запросить свежие</tspan><tspan x="927.5" dy="31">предложения</tspan></text><path d="M782.5 647H1072.5" fill="none" stroke="#111" stroke-width="1.8"  marker-end="url(#call)"/><rect x="1120.5" y="663" width="194" height="93" fill="white"/><text x="1217.5" y="689" font-family="Arial" font-size="26" text-anchor="middle"><tspan x="1217.5" dy="0">5. HTTPS;</tspan><tspan x="1217.5" dy="31">согласованный</tspan><tspan x="1217.5" dy="31">JSON/файл</tspan></text><path d="M1072.5 770H1362.5" fill="none" stroke="#111" stroke-width="1.8"  marker-end="url(#call)"/></svg>