<svg xmlns="http://www.w3.org/2000/svg" width="1855" height="703" viewBox="0 0 1855 703"><defs><marker id="call" markerWidth="9" markerHeight="8" refX="8" refY="4" orient="auto"><path d="M0 0L8 4L0 8Z" fill="#111"/></marker><marker id="open" markerWidth="9" markerHeight="8" refX="8" refY="4" orient="auto"><path d="M0 0L8 4L0 8" fill="none" stroke="#111"/></marker></defs><rect width="100%" height="100%" fill="white"/><rect x="80" y="40" width="245" height="82" fill="white" stroke="#111" stroke-width="1.7"/><text x="202.5" y="91.5" font-family="Arial" font-size="26" text-anchor="middle"><tspan x="202.5" dy="0">Сотрудник склада</tspan></text><path d="M202.5 122V688" fill="none" stroke="#888" stroke-width="1.2" stroke-dasharray="8 6"/><rect x="370" y="40" width="245" height="82" fill="white" stroke="#111" stroke-width="1.7"/><text x="492.5" y="91.5" font-family="Arial" font-size="26" text-anchor="middle"><tspan x="492.5" dy="0">Web / API</tspan></text><path d="M492.5 122V688" fill="none" stroke="#888" stroke-width="1.2" stroke-dasharray="8 6"/><rect x="660" y="40" width="245" height="82" fill="white" stroke="#111" stroke-width="1.7"/><text x="782.5" y="76" font-family="Arial" font-size="26" text-anchor="middle"><tspan x="782.5" dy="0">Сервис</tspan><tspan x="782.5" dy="31">предложений</tspan></text><path d="M782.5 122V688" fill="none" stroke="#888" stroke-width="1.2" stroke-dasharray="8 6"/><rect x="950" y="40" width="245" height="82" fill="white" stroke="#111" stroke-width="1.7"/><text x="1072.5" y="91.5" font-family="Arial" font-size="26" text-anchor="middle"><tspan x="1072.5" dy="0">Адаптер</tspan></text><path d="M1072.5 122V688" fill="none" stroke="#888" stroke-width="1.2" stroke-dasharray="8 6"/><rect x="1240" y="40" width="245" height="82" fill="white" stroke="#111" stroke-width="1.7"/><text x="1362.5" y="91.5" font-family="Arial" font-size="26" text-anchor="middle"><tspan x="1362.5" dy="0">Поставщик</tspan></text><path d="M1362.5 122V688" fill="none" stroke="#888" stroke-width="1.2" stroke-dasharray="8 6"/><rect x="1530" y="40" width="245" height="82" fill="white" stroke="#111" stroke-width="1.7"/><text x="1652.5" y="91.5" font-family="Arial" font-size="26" text-anchor="middle"><tspan x="1652.5" dy="0">PostgreSQL</tspan></text><path d="M1652.5 122V688" fill="none" stroke="#888" stroke-width="1.2" stroke-dasharray="8 6"/><rect x="24" y="162" width="1807" height="506" fill="none" stroke="#111" stroke-width="1.4"/><rect x="46" y="203" width="1763" height="465" fill="none" stroke="#111" stroke-width="1.4"/><rect x="68" y="490" width="1719" height="178" fill="none" stroke="#111" stroke-width="1.4"/><rect x="40" y="161" width="1775" height="37" fill="white"/><text x="50" y="187" font-family="Arial" font-size="24" text-anchor="start"><tspan x="50" dy="0">loop · Первая попытка и до 3 отложенных повторов [не завершено и попытка ≤ 4; дождаться next_attempt_at / срока сервера]</tspan></text><rect x="62" y="202" width="1731" height="37" fill="white"/><text x="72" y="228" font-family="Arial" font-size="24" text-anchor="start"><tspan x="72" dy="0">alt · Результат получения предложений [получены данные]</tspan></text><rect x="1100.5" y="243" width="234" height="93" fill="white"/><text x="1217.5" y="269" font-family="Arial" font-size="26" text-anchor="middle"><tspan x="1217.5" dy="0">6. Ответ с ценами,</tspan><tspan x="1217.5" dy="31">остатками и</tspan><tspan x="1217.5" dy="31">временем</tspan></text><path d="M1362.5 350H1072.5" fill="none" stroke="#111" stroke-width="1.8" stroke-dasharray="8 5" marker-end="url(#open)"/><rect x="814.5" y="366" width="226" height="93" fill="white"/><text x="927.5" y="392" font-family="Arial" font-size="26" text-anchor="middle"><tspan x="927.5" dy="0">7. Проверенные</tspan><tspan x="927.5" dy="31">записи и</tspan><tspan x="927.5" dy="31">неизвестные SKU</tspan></text><path d="M1072.5 473H782.5" fill="none" stroke="#111" stroke-width="1.8" stroke-dasharray="8 5" marker-end="url(#open)"/><rect x="84" y="489" width="1687" height="37" fill="white"/><text x="94" y="515" font-family="Arial" font-size="24" text-anchor="start"><tspan x="94" dy="0">alt · Валидация полученных записей [есть корректные сопоставленные записи]</tspan></text><rect x="934" y="530" width="567" height="31" fill="white"/><text x="1217.5" y="556" font-family="Arial" font-size="26" text-anchor="middle"><tspan x="1217.5" dy="0">8. Транзакция: добавить снимки предложений</tspan></text><path d="M782.5 575H1652.5" fill="none" stroke="#111" stroke-width="1.8"  marker-end="url(#call)"/><rect x="971" y="591" width="493" height="31" fill="white"/><text x="1217.5" y="617" font-family="Arial" font-size="26" text-anchor="middle"><tspan x="1217.5" dy="0">9. Зависимые карточки → STALE; аудит</tspan></text><path d="M782.5 636H1652.5" fill="none" stroke="#111" stroke-width="1.8"  marker-end="url(#call)"/></svg>