<svg xmlns="http://www.w3.org/2000/svg" width="1500" height="950" viewBox="0 0 1500 950"><rect width="1500" height="950" fill="white"/><g font-family="Arial"><rect x="0" y="0" width="1500" height="78" rx="0" fill="#f1f4f7" stroke="#d7dee5" stroke-width="1.5"/><text x="30" y="49" font-size="32" text-anchor="start" fill="#17212c"><tspan x="30" dy="0">Юкомс</tspan></text><text x="255" y="49" font-size="30" text-anchor="start" fill="#17212c"><tspan x="255" dy="0">Результат попытки публикации</tspan></text><text x="1466" y="47" font-size="22" text-anchor="end" fill="#17212c"><tspan x="1466" dy="0">F8 · МАКЕТ</tspan></text><rect x="0" y="78" width="225" height="872" rx="0" fill="#f8fafb" stroke="#d7dee5" stroke-width="1.5"/><text x="25" y="146" font-size="23" text-anchor="start" fill="#17212c"><tspan x="25" dy="0">Комплектующие</tspan></text><text x="25" y="210" font-size="23" text-anchor="start" fill="#17212c"><tspan x="25" dy="0">Предложения</tspan></text><text x="25" y="274" font-size="23" text-anchor="start" fill="#17212c"><tspan x="25" dy="0">Конфигурации</tspan></text><text x="25" y="338" font-size="23" text-anchor="start" fill="#17212c"><tspan x="25" dy="0">Карточки</tspan></text><text x="25" y="402" font-size="23" text-anchor="start" fill="#17212c"><tspan x="25" dy="0">Изображения</tspan></text><text x="25" y="466" font-size="23" text-anchor="start" fill="#17212c"><tspan x="25" dy="0">Расчёты</tspan></text><text x="25" y="530" font-size="23" text-anchor="start" fill="#17212c"><tspan x="25" dy="0">Публикации</tspan></text><text x="260" y="126" font-size="22" text-anchor="start" fill="#17212c"><tspan x="260" dy="0">Менеджер — чтение; worker — результат</tspan></text><text x="260" y="165" font-size="20" text-anchor="start" fill="#5d6670"><tspan x="260" dy="0">Проектная форма без серверной записи</tspan></text><text x="260" y="205" font-size="22" text-anchor="start" fill="#17212c"><tspan x="260" dy="0">Карточка</tspan></text><text x="260" y="232" font-size="17" text-anchor="start" fill="#5d6670"><tspan x="260" dy="0">publication_attempt.card_id</tspan></text><rect x="260" y="243" width="380" height="70" rx="4" fill="white" stroke="#a7b1bc" stroke-width="1.5"/><text x="272" y="269" font-size="20" text-anchor="start" fill="#17212c"><tspan x="272" dy="0">U200</tspan></text><text x="662" y="205" font-size="22" text-anchor="start" fill="#17212c"><tspan x="662" dy="0">Ревизия</tspan></text><text x="662" y="232" font-size="17" text-anchor="start" fill="#5d6670"><tspan x="662" dy="0">publication_attempt.revision_no</tspan></text><rect x="662" y="243" width="380" height="70" rx="4" fill="white" stroke="#a7b1bc" stroke-width="1.5"/><text x="674" y="269" font-size="20" text-anchor="start" fill="#17212c"><tspan x="674" dy="0">1</tspan></text><text x="1064" y="205" font-size="22" text-anchor="start" fill="#17212c"><tspan x="1064" dy="0">Номер попытки</tspan></text><text x="1064" y="232" font-size="17" text-anchor="start" fill="#5d6670"><tspan x="1064" dy="0">publication_attempt.attempt_no</tspan></text><rect x="1064" y="243" width="380" height="70" rx="4" fill="white" stroke="#a7b1bc" stroke-width="1.5"/><text x="1076" y="269" font-size="20" text-anchor="start" fill="#17212c"><tspan x="1076" dy="0">1</tspan></text><text x="260" y="344" font-size="22" text-anchor="start" fill="#17212c"><tspan x="260" dy="0">Состояние</tspan></text><text x="260" y="371" font-size="17" text-anchor="start" fill="#5d6670"><tspan x="260" dy="0">publication_attempt.state</tspan></text><rect x="260" y="382" width="380" height="70" rx="4" fill="white" stroke="#a7b1bc" stroke-width="1.5"/><text x="272" y="408" font-size="20" text-anchor="start" fill="#17212c"><tspan x="272" dy="0">ACCEPTED</tspan></text><text x="662" y="344" font-size="22" text-anchor="start" fill="#17212c"><tspan x="662" dy="0">Внешний ID задачи</tspan></text><text x="662" y="371" font-size="17" text-anchor="start" fill="#5d6670"><tspan x="662" dy="0">publication_attempt.external_task_id</tspan></text><rect x="662" y="382" width="380" height="70" rx="4" fill="white" stroke="#a7b1bc" stroke-width="1.5"/><text x="674" y="408" font-size="20" text-anchor="start" fill="#17212c"><tspan x="674" dy="0">demo-task-001</tspan></text><text x="1064" y="344" font-size="22" text-anchor="start" fill="#17212c"><tspan x="1064" dy="0">Код ошибки</tspan></text><text x="1064" y="371" font-size="17" text-anchor="start" fill="#5d6670"><tspan x="1064" dy="0">publication_attempt.error_code</tspan></text><rect x="1064" y="382" width="380" height="70" rx="4" fill="white" stroke="#a7b1bc" stroke-width="1.5"/><text x="1076" y="408" font-size="20" text-anchor="start" fill="#17212c"><tspan x="1076" dy="0">NULL</tspan></text><text x="260" y="483" font-size="22" text-anchor="start" fill="#17212c"><tspan x="260" dy="0">Непринятие подтверждено</tspan></text><text x="260" y="510" font-size="17" text-anchor="start" fill="#5d6670"><tspan x="260" dy="0">publication_attempt.confirmed_not_accepted</tspan></text><rect x="260" y="521" width="380" height="70" rx="4" fill="white" stroke="#a7b1bc" stroke-width="1.5"/><text x="272" y="547" font-size="20" text-anchor="start" fill="#17212c"><tspan x="272" dy="0">false</tspan></text><text x="662" y="483" font-size="22" text-anchor="start" fill="#17212c"><tspan x="662" dy="0">Создано</tspan></text><text x="662" y="510" font-size="17" text-anchor="start" fill="#5d6670"><tspan x="662" dy="0">publication_attempt.created_at</tspan></text><rect x="662" y="521" width="380" height="70" rx="4" fill="white" stroke="#a7b1bc" stroke-width="1.5"/><text x="674" y="547" font-size="20" text-anchor="start" fill="#17212c"><tspan x="674" dy="0">2026-10-05 07:00:00 UTC</tspan></text><text x="1064" y="483" font-size="22" text-anchor="start" fill="#17212c"><tspan x="1064" dy="0">Следующая сверка</tspan></text><text x="1064" y="510" font-size="17" text-anchor="start" fill="#5d6670"><tspan x="1064" dy="0">publication_attempt.next_check_at</tspan></text><rect x="1064" y="521" width="380" height="70" rx="4" fill="white" stroke="#a7b1bc" stroke-width="1.5"/><text x="1076" y="547" font-size="20" text-anchor="start" fill="#17212c"><tspan x="1076" dy="0">2026-10-05 07:01:00 UTC</tspan></text><text x="260" y="837" font-size="21" text-anchor="start" fill="#495461"><tspan x="260" dy="0">ACCEPTED означает принятую задачу, не опубликованную карточку. Требуется сверка.</tspan></text><rect x="260" y="883" width="282" height="46" rx="5" fill="white" stroke="#455a70" stroke-width="1.5"/><text x="276" y="914" font-size="22" text-anchor="start" fill="#22364b"><tspan x="276" dy="0">Проверить результат</tspan></text><rect x="560" y="883" width="425" height="46" rx="5" fill="#f3f3f3" stroke="#b7b7b7" stroke-width="1.5"/><text x="576" y="914" font-size="22" text-anchor="start" fill="#7b7b7b"><tspan x="576" dy="0">Повторить отправку — запрещено</tspan></text></g></svg>