<svg xmlns="http://www.w3.org/2000/svg" width="1000" height="1410" viewBox="0 0 1000 1410"><defs><marker id="a" markerWidth="8" markerHeight="8" refX="7" refY="4" orient="auto"><path d="M0 0 L7 4 L0 8" fill="none" stroke="#111" stroke-width="1.5"/></marker></defs><rect width="1000" height="1410" fill="white"/><g font-family="Arial"><path d="M270 80 V115" stroke="#111" stroke-width="2" fill="none" marker-end="url(#a)"/><path d="M270 205 V245" stroke="#111" stroke-width="2" fill="none" marker-end="url(#a)"/><path d="M270 365 V410" stroke="#111" stroke-width="2" fill="none" marker-end="url(#a)"/><text x="286" y="396" font-size="24" text-anchor="start" fill="#17212c"><tspan x="286" dy="0">Да</tspan></text><path d="M270 500 V550" stroke="#111" stroke-width="2" fill="none" marker-end="url(#a)"/><path d="M270 660 V705" stroke="#111" stroke-width="2" fill="none" marker-end="url(#a)"/><text x="286" y="694" font-size="24" text-anchor="start" fill="#17212c"><tspan x="286" dy="0">Да</tspan></text><path d="M270 795 V850" stroke="#111" stroke-width="2" fill="none" marker-end="url(#a)"/><path d="M270 960 V1005" stroke="#111" stroke-width="2" fill="none" marker-end="url(#a)"/><text x="286" y="992" font-size="24" text-anchor="start" fill="#17212c"><tspan x="286" dy="0">Да</tspan></text><path d="M270 1095 V1160" stroke="#111" stroke-width="2" fill="none" marker-end="url(#a)"/><path d="M270 1250 V1350 H15 V605 H35" stroke="#111" stroke-width="2" fill="none" marker-end="url(#a)"/><path d="M505 305 H600 V845 H620" stroke="#111" stroke-width="2" fill="none" marker-end="url(#a)"/><text x="519" y="288" font-size="24" text-anchor="start" fill="#17212c"><tspan x="519" dy="0">Нет</tspan></text><path d="M505 905 H600 V845 H620" stroke="#111" stroke-width="2" fill="none" marker-end="url(#a)"/><text x="519" y="931" font-size="24" text-anchor="start" fill="#17212c"><tspan x="519" dy="0">Нет</tspan></text><path d="M505 605 H537" stroke="#111" stroke-width="2" fill="none" marker-end="url(#a)"/><text x="510" y="585" font-size="24" text-anchor="start" fill="#17212c"><tspan x="510" dy="0">Нет</tspan></text><path d="M775 1086 V1140" stroke="#111" stroke-width="2" fill="none" marker-end="url(#a)"/><path d="M775 890 V945" stroke="#111" stroke-width="2" fill="none" marker-end="url(#a)"/><path d="M775 1230 V1290" stroke="#111" stroke-width="2" fill="none" marker-end="url(#a)"/><rect x="135" y="20" width="270" height="60" rx="30" fill="white" stroke="#111" stroke-width="1.5"/><text x="270" y="59" font-size="27" text-anchor="middle" fill="#111"><tspan x="270" dy="0">Начало</tspan></text><polygon points="90,115 475,115 450,205 65,205" fill="white" stroke="#111" stroke-width="2"/><text x="270" y="152" font-size="27" text-anchor="middle" fill="#111"><tspan x="270" dy="0">Позиции, компоненты,</tspan><tspan x="270" dy="32.94">предложения, t, TTL</tspan></text><polygon points="270,245 505,305 270,365 35,305" fill="white" stroke="#111" stroke-width="2"/><text x="270" y="297" font-size="27" text-anchor="middle" fill="#111"><tspan x="270" dy="0">Входные данные</tspan><tspan x="270" dy="32.94">допустимы?</tspan></text><rect x="65" y="410" width="410" height="90" rx="0" fill="white" stroke="#111" stroke-width="1.5"/><text x="270" y="464" font-size="27" text-anchor="middle" fill="#111"><tspan x="270" dy="0">i = 1; результат пуст</tspan></text><polygon points="270,550 505,605 270,660 35,605" fill="white" stroke="#111" stroke-width="2"/><text x="270" y="614" font-size="27" text-anchor="middle" fill="#111"><tspan x="270" dy="0">i ≤ n?</tspan></text><rect x="65" y="705" width="410" height="90" rx="0" fill="white" stroke="#111" stroke-width="1.5"/><text x="270" y="742" font-size="27" text-anchor="middle" fill="#111"><tspan x="270" dy="0">Получить допустимые</tspan><tspan x="270" dy="32.94">предложения Eᵢ</tspan></text><polygon points="270,850 505,905 270,960 35,905" fill="white" stroke="#111" stroke-width="2"/><text x="270" y="914" font-size="27" text-anchor="middle" fill="#111"><tspan x="270" dy="0">Eᵢ не пусто?</tspan></text><rect x="65" y="1005" width="410" height="90" rx="0" fill="white" stroke="#111" stroke-width="1.5"/><text x="270" y="1042" font-size="27" text-anchor="middle" fill="#111"><tspan x="270" dy="0">Выбрать минимум по</tspan><tspan x="270" dy="32.94">цене, коду, ID</tspan></text><rect x="65" y="1160" width="410" height="90" rx="0" fill="white" stroke="#111" stroke-width="1.5"/><text x="270" y="1214" font-size="27" text-anchor="middle" fill="#111"><tspan x="270" dy="0">Добавить позицию; i = i + 1</tspan></text><polygon points="645,800 930,800 905,890 620,890" fill="white" stroke="#111" stroke-width="2"/><text x="775" y="837" font-size="27" text-anchor="middle" fill="#111"><tspan x="775" dy="0">Ошибка входа /</tspan><tspan x="775" dy="32.94">нет предложения</tspan></text><rect x="650" y="945" width="250" height="60" rx="30" fill="white" stroke="#111" stroke-width="1.5"/><text x="775" y="984" font-size="27" text-anchor="middle" fill="#111"><tspan x="775" dy="0">Конец</tspan></text><circle cx="560" cy="605" r="23" fill="white" stroke="#111" stroke-width="2"/><text x="560" y="614" font-size="27" text-anchor="middle" fill="#111"><tspan x="560" dy="0">S</tspan></text><circle cx="775" cy="1063" r="23" fill="white" stroke="#111" stroke-width="2"/><text x="775" y="1072" font-size="27" text-anchor="middle" fill="#111"><tspan x="775" dy="0">S</tspan></text><polygon points="645,1140 930,1140 905,1230 620,1230" fill="white" stroke="#111" stroke-width="2"/><text x="775" y="1177" font-size="27" text-anchor="middle" fill="#111"><tspan x="775" dy="0">Выбранные позиции</tspan><tspan x="775" dy="32.94">К проверке состава</tspan></text><rect x="650" y="1290" width="250" height="60" rx="30" fill="white" stroke="#111" stroke-width="1.5"/><text x="775" y="1329" font-size="27" text-anchor="middle" fill="#111"><tspan x="775" dy="0">Конец</tspan></text></g></svg>