<svg xmlns="http://www.w3.org/2000/svg" width="1500" height="990" viewBox="0 0 1500 990"><defs><marker id="arrow" markerWidth="9" markerHeight="7" refX="8" refY="3.5" orient="auto"><path d="M0 0 L9 3.5 L0 7" fill="none" stroke="#333"/></marker></defs><rect width="1500" height="990" fill="white"/><rect x="30" y="330" width="280" height="130" rx="0" fill="white" stroke="#222" stroke-width="2"/><text x="170.0" y="388.9" font-family="Arial" font-size="20" font-weight="normal" text-anchor="middle" fill="#111">«device» Рабочие</text><text x="170.0" y="413.9" font-family="Arial" font-size="20" font-weight="normal" text-anchor="middle" fill="#111">станции</text><text x="170.0" y="438.9" font-family="Arial" font-size="20" font-weight="normal" text-anchor="middle" fill="#111">Браузеры сотрудников</text><rect x="390" y="315" width="300" height="160" rx="0" fill="white" stroke="#222" stroke-width="2"/><text x="540.0" y="376.4" font-family="Arial" font-size="20" font-weight="normal" text-anchor="middle" fill="#111">«node» Шлюз / DMZ</text><text x="540.0" y="401.4" font-family="Arial" font-size="20" font-weight="normal" text-anchor="middle" fill="#111">Nginx: HTTPS 443</text><text x="540.0" y="426.4" font-family="Arial" font-size="20" font-weight="normal" text-anchor="middle" fill="#111">TLS и маршрутизация</text><rect x="805" y="165" width="310" height="170" rx="0" fill="white" stroke="#222" stroke-width="2"/><text x="960.0" y="231.4" font-family="Arial" font-size="20" font-weight="normal" text-anchor="middle" fill="#111">«node» Прикладной сервер</text><text x="960.0" y="256.4" font-family="Arial" font-size="20" font-weight="normal" text-anchor="middle" fill="#111">JRE 21: Spring Boot</text><text x="960.0" y="281.4" font-family="Arial" font-size="20" font-weight="normal" text-anchor="middle" fill="#111">API и worker публикаций</text><rect x="805" y="485" width="310" height="160" rx="0" fill="white" stroke="#222" stroke-width="2"/><text x="960.0" y="546.4" font-family="Arial" font-size="20" font-weight="normal" text-anchor="middle" fill="#111">«node» Сервер БД</text><text x="960.0" y="571.4" font-family="Arial" font-size="20" font-weight="normal" text-anchor="middle" fill="#111">PostgreSQL 18</text><text x="960.0" y="596.4" font-family="Arial" font-size="20" font-weight="normal" text-anchor="middle" fill="#111">Данные и очередь</text><rect x="805" y="780" width="310" height="130" rx="0" fill="white" stroke="#222" stroke-width="2"/><text x="960.0" y="838.9" font-family="Arial" font-size="20" font-weight="normal" text-anchor="middle" fill="#111">«node» Файловое хранилище</text><text x="960.0" y="863.9" font-family="Arial" font-size="20" font-weight="normal" text-anchor="middle" fill="#111">Изображения по storage_key</text><rect x="1170" y="165" width="300" height="145" rx="0" fill="white" stroke="#222" stroke-width="2"/><text x="1320.0" y="218.9" font-family="Arial" font-size="20" font-weight="normal" text-anchor="middle" fill="#111">«external»</text><text x="1320.0" y="243.9" font-family="Arial" font-size="20" font-weight="normal" text-anchor="middle" fill="#111">Ozon и поставщики</text><text x="1320.0" y="268.9" font-family="Arial" font-size="20" font-weight="normal" text-anchor="middle" fill="#111">Интернет</text><rect x="1170" y="685" width="300" height="160" rx="0" fill="white" stroke="#222" stroke-width="2"/><text x="1320.0" y="733.9" font-family="Arial" font-size="20" font-weight="normal" text-anchor="middle" fill="#111">«node» Резервное</text><text x="1320.0" y="758.9" font-family="Arial" font-size="20" font-weight="normal" text-anchor="middle" fill="#111">хранилище</text><text x="1320.0" y="783.9" font-family="Arial" font-size="20" font-weight="normal" text-anchor="middle" fill="#111">БД и изображения</text><text x="1320.0" y="808.9" font-family="Arial" font-size="20" font-weight="normal" text-anchor="middle" fill="#111">Отдельные учётные данные</text><polyline points="310.0,395.0 350.0,395.0 350.0,395.0 390.0,395.0" fill="none" stroke="#333" stroke-width="1.8"  marker-end="url(#arrow)"/><rect x="320.6" y="368.0" width="82.8" height="24" fill="white"/><text x="362.0" y="387.0" font-family="Arial" font-size="17" font-weight="normal" text-anchor="middle" fill="#111">HTTPS 443</text><polyline points="690.0,395.0 747.5,395.0 747.5,250.0 805.0,250.0" fill="none" stroke="#333" stroke-width="1.8"  marker-end="url(#arrow)"/><rect x="713.5" y="295.5" width="92.0" height="24" fill="white"/><text x="759.5" y="314.5" font-family="Arial" font-size="17" font-weight="normal" text-anchor="middle" fill="#111">HTTPS 8443</text><polyline points="960.0,335.0 960.0,410.0 960.0,410.0 960.0,485.0" fill="none" stroke="#333" stroke-width="1.8"  marker-end="url(#arrow)"/><rect x="935.2" y="383.0" width="73.6" height="24" fill="white"/><text x="972.0" y="402.0" font-family="Arial" font-size="17" font-weight="normal" text-anchor="middle" fill="#111">TLS 5432</text><polyline points="1115.0,250.0 1142.5,250.0 1142.5,237.5 1170.0,237.5" fill="none" stroke="#333" stroke-width="1.8"  marker-end="url(#arrow)"/><rect x="1113.1" y="216.75" width="82.8" height="24" fill="white"/><text x="1154.5" y="235.75" font-family="Arial" font-size="17" font-weight="normal" text-anchor="middle" fill="#111">HTTPS 443</text><polyline points="1115.0,565.0 1142.5,565.0 1142.5,765.0 1170.0,765.0" fill="none" stroke="#333" stroke-width="1.8"  marker-end="url(#arrow)"/><rect x="1233.2" y="566" width="73.6" height="24" fill="white"/><text x="1270" y="585.0" font-family="Arial" font-size="17" font-weight="normal" text-anchor="middle" fill="#111">копия БД</text><polyline points="805,285 735,285 735,845 805,845" fill="none" stroke="#333" stroke-width="1.8"  marker-end="url(#arrow)"/><rect x="712.0" y="716" width="46.0" height="24" fill="white"/><text x="735" y="735.0" font-family="Arial" font-size="17" font-weight="normal" text-anchor="middle" fill="#111">HTTPS</text><polyline points="1115.0,845.0 1142.5,845.0 1142.5,765.0 1170.0,765.0" fill="none" stroke="#333" stroke-width="1.8"  marker-end="url(#arrow)"/><rect x="1244.8" y="866" width="110.39999999999999" height="24" fill="white"/><text x="1300" y="885.0" font-family="Arial" font-size="17" font-weight="normal" text-anchor="middle" fill="#111">копия файлов</text><text x="25" y="55.0" font-family="Arial" font-size="26" font-weight="bold" text-anchor="start" fill="#111">Сети: пользователи → DMZ → закрытый серверный сегмент</text><text x="25" y="960.0" font-family="Arial" font-size="20" font-weight="normal" text-anchor="start" fill="#111">Удалённое администрирование через VPN. БД не публикуется в Интернет. Резервные копии шифруются.</text></svg>