<svg xmlns="http://www.w3.org/2000/svg" width="1430" height="700" viewBox="0 0 1430 700"><defs><marker id="arrow" markerWidth="9" markerHeight="7" refX="8" refY="3.5" orient="auto"><path d="M0 0 L9 3.5 L0 7" fill="none" stroke="#333"/></marker></defs><rect width="1430" height="700" fill="white"/><rect x="25" y="275" width="270" height="110" rx="0" fill="white" stroke="#222" stroke-width="2"/><text x="160.0" y="323.9" font-family="Arial" font-size="20" font-weight="normal" text-anchor="middle" fill="#111">Пользователь</text><text x="160.0" y="348.9" font-family="Arial" font-size="20" font-weight="normal" text-anchor="middle" fill="#111">и назначенные роли</text><rect x="370" y="275" width="290" height="110" rx="0" fill="white" stroke="#222" stroke-width="2"/><text x="515.0" y="323.9" font-family="Arial" font-size="20" font-weight="normal" text-anchor="middle" fill="#111">Аутентификация</text><text x="515.0" y="348.9" font-family="Arial" font-size="20" font-weight="normal" text-anchor="middle" fill="#111">и серверная сессия</text><rect x="770" y="275" width="300" height="110" rx="0" fill="white" stroke="#222" stroke-width="2"/><text x="920.0" y="311.4" font-family="Arial" font-size="20" font-weight="normal" text-anchor="middle" fill="#111">Проверка RBAC</text><text x="920.0" y="336.4" font-family="Arial" font-size="20" font-weight="normal" text-anchor="middle" fill="#111">ресурс + операция +</text><text x="920.0" y="361.4" font-family="Arial" font-size="20" font-weight="normal" text-anchor="middle" fill="#111">условие</text><rect x="1120" y="105" width="285" height="110" rx="0" fill="white" stroke="#222" stroke-width="2"/><text x="1262.5" y="153.9" font-family="Arial" font-size="20" font-weight="normal" text-anchor="middle" fill="#111">Разрешённое действие</text><text x="1262.5" y="178.9" font-family="Arial" font-size="20" font-weight="normal" text-anchor="middle" fill="#111">в транзакции</text><rect x="1120" y="470" width="285" height="110" rx="0" fill="white" stroke="#222" stroke-width="2"/><text x="1262.5" y="518.9" font-family="Arial" font-size="20" font-weight="normal" text-anchor="middle" fill="#111">Отказ в доступе</text><text x="1262.5" y="543.9" font-family="Arial" font-size="20" font-weight="normal" text-anchor="middle" fill="#111">без изменения данных</text><polyline points="295.0,330.0 332.5,330.0 332.5,330.0 370.0,330.0" fill="none" stroke="#333" stroke-width="1.8"  marker-end="url(#arrow)"/><rect x="321.5" y="303.0" width="46.0" height="24" fill="white"/><text x="344.5" y="322.0" font-family="Arial" font-size="17" font-weight="normal" text-anchor="middle" fill="#111">HTTPS</text><polyline points="660.0,330.0 715.0,330.0 715.0,330.0 770.0,330.0" fill="none" stroke="#333" stroke-width="1.8"  marker-end="url(#arrow)"/><rect x="671.8" y="303.0" width="110.39999999999999" height="24" fill="white"/><text x="727.0" y="322.0" font-family="Arial" font-size="17" font-weight="normal" text-anchor="middle" fill="#111">пользователь</text><polyline points="1070.0,330.0 1095.0,330.0 1095.0,160.0 1120.0,160.0" fill="none" stroke="#333" stroke-width="1.8"  marker-end="url(#arrow)"/><rect x="1065.6" y="218.0" width="82.8" height="24" fill="white"/><text x="1107.0" y="237.0" font-family="Arial" font-size="17" font-weight="normal" text-anchor="middle" fill="#111">Разрешено</text><polyline points="1070.0,330.0 1095.0,330.0 1095.0,525.0 1120.0,525.0" fill="none" stroke="#333" stroke-width="1.8"  marker-end="url(#arrow)"/><rect x="1065.6" y="400.5" width="82.8" height="24" fill="white"/><text x="1107.0" y="419.5" font-family="Arial" font-size="17" font-weight="normal" text-anchor="middle" fill="#111">Запрещено</text><text x="715" y="655.0" font-family="Arial" font-size="20" font-weight="normal" text-anchor="middle" fill="#111">По умолчанию отказ. Администратор управляет доступом, но не получает право публикации автоматически.</text></svg>